<svg height="20px" width="20px" version="1.1" id="Layer_1" xmlns="http://www.w3.org/2000/svg"
    xmlns:xlink="http://www.w3.org/1999/xlink" viewBox="0 0 511.45 511.45" xml:space="preserve" fill="#000000">
    <g id="SVGRepo_bgCarrier" stroke-width="0"></g>
    <g id="SVGRepo_tracerCarrier" stroke-linecap="round" stroke-linejoin="round"></g>
    <g id="SVGRepo_iconCarrier">
        <g transform="translate(1 1)">
            <path style="fill:#B6B6B6;"
                d="M374.842,490.54c-5.908,0-10.831-0.985-16.738-3.938l-106.338-56.123 c-4.923-1.969-9.846-1.969-14.769,0l-106.338,56.123c-11.815,5.908-26.585,4.923-37.415-2.954s-15.754-20.677-13.785-34.462 l20.677-118.154c0.985-4.923-0.985-9.846-4.923-13.785L9.549,233.556c-9.846-9.846-12.8-23.631-8.862-36.431 c3.938-12.8,14.769-21.662,28.554-23.631l119.138-17.723c4.923-0.985,9.846-3.938,11.815-8.862l53.169-108.308 c5.908-11.815,17.723-19.692,31.508-19.692c13.785,0,25.6,7.877,31.508,19.692l53.169,108.308 c1.969,4.923,6.892,7.877,11.815,8.862l119.138,17.723c13.785,1.969,24.615,10.831,28.554,23.631s0.985,26.585-8.862,36.431 l-85.662,83.692c-3.938,3.938-4.923,8.862-4.923,13.785l20.677,118.154c1.969,13.785-2.954,26.585-13.785,34.462 C389.611,488.571,381.734,490.54,374.842,490.54z M244.873,408.817c5.908,0,10.831,0.985,16.738,3.938l106.338,56.123 c4.923,2.954,11.815,1.969,16.738-0.985c4.923-3.938,6.892-8.862,5.908-14.769l-20.677-118.154 c-1.969-11.815,1.969-22.646,9.846-31.508l85.662-83.692c3.938-3.938,5.908-9.846,3.938-15.754 c-1.969-5.908-6.892-9.846-12.8-10.831l-118.154-18.708c-11.815-1.969-21.662-8.862-26.585-19.692L258.657,46.479l0,0 c-2.954-5.908-7.877-8.862-13.785-8.862s-10.831,2.954-13.785,8.862l-53.169,108.308c-4.923,10.831-14.769,17.723-26.585,19.692 L32.196,192.202c-5.908,0.985-10.831,4.923-12.8,10.831c-1.969,5.908,0,11.815,3.938,15.754l85.662,83.692 c7.877,7.877,11.815,19.692,9.846,31.508L98.165,452.14c-0.985,5.908,0.985,11.815,5.908,14.769 c4.923,3.938,10.831,3.938,16.738,0.985l106.338-56.123C233.057,410.786,238.965,408.817,244.873,408.817z">
            </path>
        </g>
    </g>
</svg>